<svg id="Capa_1" data-name="Capa 1" xmlns="http://www.w3.org/2000/svg" viewBox="0 0 56.69 56.58"><path d="M-1.6,57.94c0-19.68,0-39.36,0-59,19.85.07,39.7,0,59.56,0,.68.85.48,1.85.48,2.79q0,27.66,0,55.32A1.37,1.37,0,0,1,57,58.42H1.22C.26,58.41-.75,58.61-1.6,57.94Z" fill="#D8BFD8"/><path d="M35.59,35.28A22.61,22.61,0,0,1,25.86,33c-.91-.45-2.21-.88-1.49-2.31s1.67-.52,2.54-.12c6.48,3,12.88,2.44,19.27-.32,1.09-.47,2.61-1.81,3.36-.14s-1.33,2.05-2.44,2.59A25.55,25.55,0,0,1,35.59,35.28Z" fill="#fcfaf7"/><path d="M12.37,15.28a3.13,3.13,0,0,1,3.16,3,3.24,3.24,0,0,1-2.95,3.23,3.31,3.31,0,0,1-3.2-3A3.2,3.2,0,0,1,12.37,15.28Z" fill="#faf8f4"/><path d="M46.13,15.25a3.16,3.16,0,0,1,3.2,3,3.2,3.2,0,0,1-2.93,3.22,3.09,3.09,0,0,1-.27-6.18Z" fill="#fbfaf7"/></svg>